<svg width="150" height="150" viewBox="0 0 150 150" fill="none" xmlns="http://www.w3.org/2000/svg">
<g opacity="0.7">
<ellipse cx="1.83767" cy="1.83768" rx="1.83767" ry="1.83768" fill="#B79853"/>
<ellipse cx="1.83767" cy="22.7415" rx="1.83767" ry="1.83768" fill="#B79853"/>
<ellipse cx="1.83767" cy="43.6448" rx="1.83767" ry="1.83768" fill="#B79853"/>
<ellipse cx="1.83767" cy="64.5484" rx="1.83767" ry="1.83768" fill="#B79853"/>
<ellipse cx="1.83767" cy="85.4517" rx="1.83767" ry="1.83768" fill="#B79853"/>
<ellipse cx="1.83767" cy="106.355" rx="1.83767" ry="1.83768" fill="#B79853"/>
<ellipse cx="1.83767" cy="127.259" rx="1.83767" ry="1.83768" fill="#B79853"/>
<ellipse cx="1.83767" cy="148.162" rx="1.83767" ry="1.83768" fill="#B79853"/>
<ellipse cx="22.7412" cy="1.83768" rx="1.83767" ry="1.83768" fill="#B79853"/>
<ellipse cx="22.7412" cy="22.7415" rx="1.83767" ry="1.83768" fill="#B79853"/>
<ellipse cx="22.7412" cy="43.6448" rx="1.83767" ry="1.83768" fill="#B79853"/>
<ellipse cx="22.7412" cy="64.5484" rx="1.83767" ry="1.83768" fill="#B79853"/>
<ellipse cx="22.7412" cy="85.4517" rx="1.83767" ry="1.83768" fill="#B79853"/>
<ellipse cx="22.7412" cy="106.355" rx="1.83767" ry="1.83768" fill="#B79853"/>
<ellipse cx="22.7412" cy="127.259" rx="1.83767" ry="1.83768" fill="#B79853"/>
<ellipse cx="22.7412" cy="148.162" rx="1.83767" ry="1.83768" fill="#B79853"/>
<ellipse cx="43.6448" cy="1.83768" rx="1.83767" ry="1.83768" fill="#B79853"/>
<ellipse cx="43.6448" cy="22.7415" rx="1.83767" ry="1.83768" fill="#B79853"/>
<ellipse cx="43.6448" cy="43.6448" rx="1.83767" ry="1.83768" fill="#B79853"/>
<ellipse cx="43.6448" cy="64.5484" rx="1.83767" ry="1.83768" fill="#B79853"/>
<ellipse cx="43.6448" cy="85.4517" rx="1.83767" ry="1.83768" fill="#B79853"/>
<ellipse cx="43.6448" cy="106.355" rx="1.83767" ry="1.83768" fill="#B79853"/>
<ellipse cx="43.6448" cy="127.259" rx="1.83767" ry="1.83768" fill="#B79853"/>
<ellipse cx="43.6448" cy="148.162" rx="1.83767" ry="1.83768" fill="#B79853"/>
<ellipse cx="64.5481" cy="1.83768" rx="1.83767" ry="1.83768" fill="#B79853"/>
<ellipse cx="64.5484" cy="22.7415" rx="1.83767" ry="1.83768" fill="#B79853"/>
<ellipse cx="64.5484" cy="43.6448" rx="1.83767" ry="1.83768" fill="#B79853"/>
<ellipse cx="64.5484" cy="64.5484" rx="1.83767" ry="1.83768" fill="#B79853"/>
<ellipse cx="64.5484" cy="85.4517" rx="1.83767" ry="1.83768" fill="#B79853"/>
<ellipse cx="64.5484" cy="106.355" rx="1.83767" ry="1.83768" fill="#B79853"/>
<ellipse cx="64.5484" cy="127.259" rx="1.83767" ry="1.83768" fill="#B79853"/>
<ellipse cx="64.5484" cy="148.162" rx="1.83767" ry="1.83768" fill="#B79853"/>
<ellipse cx="85.4517" cy="1.83768" rx="1.83767" ry="1.83768" fill="#B79853"/>
<ellipse cx="85.4517" cy="22.7415" rx="1.83767" ry="1.83768" fill="#B79853"/>
<ellipse cx="85.4517" cy="43.6448" rx="1.83767" ry="1.83768" fill="#B79853"/>
<ellipse cx="85.4517" cy="64.5484" rx="1.83767" ry="1.83768" fill="#B79853"/>
<ellipse cx="85.4517" cy="85.4517" rx="1.83767" ry="1.83768" fill="#B79853"/>
<ellipse cx="85.4517" cy="106.355" rx="1.83767" ry="1.83768" fill="#B79853"/>
<ellipse cx="85.4517" cy="127.259" rx="1.83767" ry="1.83768" fill="#B79853"/>
<ellipse cx="85.4517" cy="148.162" rx="1.83767" ry="1.83768" fill="#B79853"/>
<ellipse cx="106.355" cy="1.83768" rx="1.83767" ry="1.83768" fill="#B79853"/>
<ellipse cx="106.355" cy="22.7415" rx="1.83767" ry="1.83768" fill="#B79853"/>
<ellipse cx="106.355" cy="43.6448" rx="1.83767" ry="1.83768" fill="#B79853"/>
<ellipse cx="106.355" cy="64.5484" rx="1.83767" ry="1.83768" fill="#B79853"/>
<ellipse cx="106.355" cy="85.4517" rx="1.83767" ry="1.83768" fill="#B79853"/>
<ellipse cx="106.355" cy="106.355" rx="1.83767" ry="1.83768" fill="#B79853"/>
<ellipse cx="106.355" cy="127.259" rx="1.83767" ry="1.83768" fill="#B79853"/>
<ellipse cx="106.355" cy="148.162" rx="1.83767" ry="1.83768" fill="#B79853"/>
<ellipse cx="127.259" cy="1.83768" rx="1.83767" ry="1.83768" fill="#B79853"/>
<ellipse cx="127.259" cy="22.7415" rx="1.83767" ry="1.83768" fill="#B79853"/>
<ellipse cx="127.259" cy="43.6448" rx="1.83767" ry="1.83768" fill="#B79853"/>
<ellipse cx="127.259" cy="64.5484" rx="1.83767" ry="1.83768" fill="#B79853"/>
<ellipse cx="127.259" cy="85.4517" rx="1.83767" ry="1.83768" fill="#B79853"/>
<ellipse cx="127.259" cy="106.355" rx="1.83767" ry="1.83768" fill="#B79853"/>
<ellipse cx="127.259" cy="127.259" rx="1.83767" ry="1.83768" fill="#B79853"/>
<ellipse cx="127.259" cy="148.162" rx="1.83767" ry="1.83768" fill="#B79853"/>
<ellipse cx="148.162" cy="1.83768" rx="1.83767" ry="1.83768" fill="#B79853"/>
<ellipse cx="148.162" cy="22.7415" rx="1.83767" ry="1.83768" fill="#B79853"/>
<ellipse cx="148.162" cy="43.6448" rx="1.83767" ry="1.83768" fill="#B79853"/>
<ellipse cx="148.162" cy="64.5484" rx="1.83767" ry="1.83768" fill="#B79853"/>
<ellipse cx="148.162" cy="85.4517" rx="1.83767" ry="1.83768" fill="#B79853"/>
<ellipse cx="148.162" cy="106.355" rx="1.83767" ry="1.83768" fill="#B79853"/>
<ellipse cx="148.162" cy="127.259" rx="1.83767" ry="1.83768" fill="#B79853"/>
<ellipse cx="148.162" cy="148.162" rx="1.83767" ry="1.83768" fill="#B79853"/>
</g>
</svg>
